<svg xmlns="http://www.w3.org/2000/svg" width="970" height="460">

<style>
text, .has-tooltip + *
{
    pointer-events: none;
}

.has-tooltip:not(:hover) + *
{
    display: none;
}
</style>

<rect x="0" y="0" width="970" height="460" fill="#121212" />
<text x="10" y="40" font-size="30" fill="white" >Republic of the Congo.txt</text>
<text x="10" y="80" font-size="20" fill="white" >1344 vertices, 1342 triangles (measured 500 times)</text>
<line x1="130.5" y1="100" x2="130.5" y2="380" stroke="white" stroke-width="1" />
<line x1="930.5" y1="100" x2="930.5" y2="380" stroke="white" stroke-width="1" />
<line x1="10" y1="379.5" x2="930" y2="379.5" stroke="white" stroke-width="1" />
<line x1="130.5" y1="380" x2="130.5" y2="390" stroke="white" stroke-width="1" />
<text x="130.5" y="400" font-size="10" fill="white" text-anchor="middle" >0.6ms</text>
<line x1="172.5" y1="380" x2="172.5" y2="390" stroke="white" stroke-width="1" />
<text x="172.5" y="400" font-size="10" fill="white" text-anchor="middle" >0.7ms</text>
<line x1="214.5" y1="380" x2="214.5" y2="390" stroke="white" stroke-width="1" />
<text x="214.5" y="400" font-size="10" fill="white" text-anchor="middle" >0.8ms</text>
<line x1="256.5" y1="380" x2="256.5" y2="390" stroke="white" stroke-width="1" />
<text x="256.5" y="400" font-size="10" fill="white" text-anchor="middle" >0.9ms</text>
<line x1="298.5" y1="380" x2="298.5" y2="390" stroke="white" stroke-width="1" />
<text x="298.5" y="400" font-size="10" fill="white" text-anchor="middle" >1.0ms</text>
<line x1="341.5" y1="380" x2="341.5" y2="390" stroke="white" stroke-width="1" />
<text x="341.5" y="400" font-size="10" fill="white" text-anchor="middle" >1.1ms</text>
<line x1="383.5" y1="380" x2="383.5" y2="390" stroke="white" stroke-width="1" />
<text x="383.5" y="400" font-size="10" fill="white" text-anchor="middle" >1.2ms</text>
<line x1="425.5" y1="380" x2="425.5" y2="390" stroke="white" stroke-width="1" />
<text x="425.5" y="400" font-size="10" fill="white" text-anchor="middle" >1.3ms</text>
<line x1="467.5" y1="380" x2="467.5" y2="390" stroke="white" stroke-width="1" />
<text x="467.5" y="400" font-size="10" fill="white" text-anchor="middle" >1.4ms</text>
<line x1="509.5" y1="380" x2="509.5" y2="390" stroke="white" stroke-width="1" />
<text x="509.5" y="400" font-size="10" fill="white" text-anchor="middle" >1.5ms</text>
<line x1="551.5" y1="380" x2="551.5" y2="390" stroke="white" stroke-width="1" />
<text x="551.5" y="400" font-size="10" fill="white" text-anchor="middle" >1.6ms</text>
<line x1="593.5" y1="380" x2="593.5" y2="390" stroke="white" stroke-width="1" />
<text x="593.5" y="400" font-size="10" fill="white" text-anchor="middle" >1.7ms</text>
<line x1="635.5" y1="380" x2="635.5" y2="390" stroke="white" stroke-width="1" />
<text x="635.5" y="400" font-size="10" fill="white" text-anchor="middle" >1.8ms</text>
<line x1="677.5" y1="380" x2="677.5" y2="390" stroke="white" stroke-width="1" />
<text x="677.5" y="400" font-size="10" fill="white" text-anchor="middle" >1.9ms</text>
<line x1="719.5" y1="380" x2="719.5" y2="390" stroke="white" stroke-width="1" />
<text x="719.5" y="400" font-size="10" fill="white" text-anchor="middle" >2.0ms</text>
<line x1="762.5" y1="380" x2="762.5" y2="390" stroke="white" stroke-width="1" />
<text x="762.5" y="400" font-size="10" fill="white" text-anchor="middle" >2.1ms</text>
<line x1="804.5" y1="380" x2="804.5" y2="390" stroke="white" stroke-width="1" />
<text x="804.5" y="400" font-size="10" fill="white" text-anchor="middle" >2.2ms</text>
<line x1="846.5" y1="380" x2="846.5" y2="390" stroke="white" stroke-width="1" />
<text x="846.5" y="400" font-size="10" fill="white" text-anchor="middle" >2.3ms</text>
<line x1="888.5" y1="380" x2="888.5" y2="390" stroke="white" stroke-width="1" />
<text x="888.5" y="400" font-size="10" fill="white" text-anchor="middle" >2.4ms</text>
<line x1="930.5" y1="380" x2="930.5" y2="390" stroke="white" stroke-width="1" />
<text x="930.5" y="400" font-size="10" fill="white" text-anchor="middle" >2.5ms</text>
<text x="530" y="435" font-size="16" fill="white" text-anchor="middle" >Triangulation time (milliseconds)</text>
<text x="20" y="135" font-size="20" fill="white" dominant-baseline="middle" >detria</text>
<line x1="10" y1="99.5" x2="930" y2="99.5" stroke="white" stroke-width="1" />
<g transform="translate(130, 110)">
<line x1="36" y1="10" x2="36" y2="40" stroke="white" stroke-width="2" />
<line x1="70" y1="10" x2="70" y2="40" stroke="white" stroke-width="2" />
<rect x="47" y="0" width="2" height="50" fill="#404040" stroke="white" stroke-width="2" />
<rect x="49" y="0" width="7" height="50" fill="#505050" stroke="white" stroke-width="2" />
<line x1="36" y1="25" x2="47" y2="25" stroke="white" stroke-width="2" />
<line x1="56" y1="25" x2="70" y2="25" stroke="white" stroke-width="2" />
<circle cx="71.24210526315787" cy="25" r="2.5" fill="#ff000060" />
<circle cx="71.53684210526313" cy="25" r="2.5" fill="#ff000060" />
<circle cx="72.08421052631576" cy="25" r="2.5" fill="#ff000060" />
<circle cx="72.12631578947365" cy="25" r="2.5" fill="#ff000060" />
<circle cx="72.58947368421047" cy="25" r="2.5" fill="#ff000060" />
<circle cx="72.84210526315788" cy="25" r="2.5" fill="#ff000060" />
<circle cx="73.5578947368421" cy="25" r="2.5" fill="#ff000060" />
<circle cx="74.52631578947366" cy="25" r="2.5" fill="#ff000060" />
<circle cx="75.578947368421" cy="25" r="2.5" fill="#ff000060" />
<circle cx="75.70526315789472" cy="25" r="2.5" fill="#ff000060" />
<circle cx="76.75789473684208" cy="25" r="2.5" fill="#ff000060" />
<circle cx="78.0631578947368" cy="25" r="2.5" fill="#ff000060" />
<circle cx="78.39999999999996" cy="25" r="2.5" fill="#ff000060" />
<circle cx="79.49473684210521" cy="25" r="2.5" fill="#ff000060" />
<circle cx="80.63157894736838" cy="25" r="2.5" fill="#ff000060" />
<circle cx="80.88421052631577" cy="25" r="2.5" fill="#ff000060" />
<circle cx="87.7052631578947" cy="25" r="2.5" fill="#ff000060" />
<circle cx="91.70526315789469" cy="25" r="2.5" fill="#ff000060" />
<circle cx="98.27368421052628" cy="25" r="2.5" fill="#ff000060" />
<circle cx="103.57894736842101" cy="25" r="2.5" fill="#ff000060" />
<circle cx="104.33684210526313" cy="25" r="2.5" fill="#ff000060" />
<circle cx="123.74736842105261" cy="25" r="2.5" fill="#ff000060" />
<circle cx="124.67368421052629" cy="25" r="2.5" fill="#ff000060" />
<circle cx="133.34736842105258" cy="25" r="2.5" fill="#ff000060" />
<circle cx="140.7157894736842" cy="25" r="2.5" fill="#ff000060" />
</g>
<text x="20" y="205" font-size="20" fill="white" dominant-baseline="middle" >triangle</text>
<line x1="10" y1="169.5" x2="930" y2="169.5" stroke="white" stroke-width="1" />
<g transform="translate(130, 180)">
<line x1="65" y1="10" x2="65" y2="40" stroke="white" stroke-width="2" />
<line x1="103" y1="10" x2="103" y2="40" stroke="white" stroke-width="2" />
<rect x="79" y="0" width="4" height="50" fill="#404040" stroke="white" stroke-width="2" />
<rect x="83" y="0" width="6" height="50" fill="#505050" stroke="white" stroke-width="2" />
<line x1="65" y1="25" x2="79" y2="25" stroke="white" stroke-width="2" />
<line x1="89" y1="25" x2="103" y2="25" stroke="white" stroke-width="2" />
<circle cx="64.04210526315785" cy="25" r="2.5" fill="#ff000060" />
<circle cx="65.13684210526314" cy="25" r="2.5" fill="#ff000060" />
<circle cx="103.78947368421049" cy="25" r="2.5" fill="#ff000060" />
<circle cx="105.93684210526312" cy="25" r="2.5" fill="#ff000060" />
<circle cx="106.18947368421048" cy="25" r="2.5" fill="#ff000060" />
<circle cx="106.69473684210524" cy="25" r="2.5" fill="#ff000060" />
<circle cx="108.6315789473684" cy="25" r="2.5" fill="#ff000060" />
<circle cx="116.04210526315788" cy="25" r="2.5" fill="#ff000060" />
<circle cx="117.38947368421051" cy="25" r="2.5" fill="#ff000060" />
<circle cx="117.81052631578946" cy="25" r="2.5" fill="#ff000060" />
<circle cx="120.08421052631574" cy="25" r="2.5" fill="#ff000060" />
<circle cx="120.16842105263153" cy="25" r="2.5" fill="#ff000060" />
<circle cx="121.34736842105261" cy="25" r="2.5" fill="#ff000060" />
<circle cx="121.72631578947366" cy="25" r="2.5" fill="#ff000060" />
<circle cx="122.48421052631578" cy="25" r="2.5" fill="#ff000060" />
<circle cx="125.64210526315784" cy="25" r="2.5" fill="#ff000060" />
<circle cx="128.25263157894733" cy="25" r="2.5" fill="#ff000060" />
<circle cx="132.37894736842102" cy="25" r="2.5" fill="#ff000060" />
<circle cx="134.52631578947364" cy="25" r="2.5" fill="#ff000060" />
<circle cx="139.24210526315787" cy="25" r="2.5" fill="#ff000060" />
<circle cx="139.578947368421" cy="25" r="2.5" fill="#ff000060" />
<circle cx="141.97894736842102" cy="25" r="2.5" fill="#ff000060" />
<circle cx="144.4210526315789" cy="25" r="2.5" fill="#ff000060" />
<circle cx="160.33684210526314" cy="25" r="2.5" fill="#ff000060" />
<circle cx="181.09473684210525" cy="25" r="2.5" fill="#ff000060" />
</g>
<text x="20" y="275" font-size="20" fill="white" dominant-baseline="middle" >poly2tri</text>
<line x1="10" y1="239.5" x2="930" y2="239.5" stroke="white" stroke-width="1" />
<g transform="translate(130, 250)">
<line x1="201" y1="10" x2="201" y2="40" stroke="white" stroke-width="2" />
<line x1="239" y1="10" x2="239" y2="40" stroke="white" stroke-width="2" />
<rect x="215" y="0" width="4" height="50" fill="#404040" stroke="white" stroke-width="2" />
<rect x="219" y="0" width="6" height="50" fill="#505050" stroke="white" stroke-width="2" />
<line x1="201" y1="25" x2="215" y2="25" stroke="white" stroke-width="2" />
<line x1="225" y1="25" x2="239" y2="25" stroke="white" stroke-width="2" />
<circle cx="196.5052631578947" cy="25" r="2.5" fill="#ff000060" />
<circle cx="197.97894736842102" cy="25" r="2.5" fill="#ff000060" />
<circle cx="198.90526315789472" cy="25" r="2.5" fill="#ff000060" />
<circle cx="199.15789473684208" cy="25" r="2.5" fill="#ff000060" />
<circle cx="239.41052631578947" cy="25" r="2.5" fill="#ff000060" />
<circle cx="239.7473684210526" cy="25" r="2.5" fill="#ff000060" />
<circle cx="241.38947368421051" cy="25" r="2.5" fill="#ff000060" />
<circle cx="241.59999999999994" cy="25" r="2.5" fill="#ff000060" />
<circle cx="241.8105263157894" cy="25" r="2.5" fill="#ff000060" />
<circle cx="242.73684210526318" cy="25" r="2.5" fill="#ff000060" />
<circle cx="242.90526315789472" cy="25" r="2.5" fill="#ff000060" />
<circle cx="243.0315789473684" cy="25" r="2.5" fill="#ff000060" />
<circle cx="243.36842105263153" cy="25" r="2.5" fill="#ff000060" />
<circle cx="243.70526315789473" cy="25" r="2.5" fill="#ff000060" />
<circle cx="243.7473684210526" cy="25" r="2.5" fill="#ff000060" />
<circle cx="244.16842105263154" cy="25" r="2.5" fill="#ff000060" />
<circle cx="244.50526315789475" cy="25" r="2.5" fill="#ff000060" />
<circle cx="244.54736842105262" cy="25" r="2.5" fill="#ff000060" />
<circle cx="245.47368421052633" cy="25" r="2.5" fill="#ff000060" />
<circle cx="245.81052631578945" cy="25" r="2.5" fill="#ff000060" />
<circle cx="246.31578947368422" cy="25" r="2.5" fill="#ff000060" />
<circle cx="246.48421052631576" cy="25" r="2.5" fill="#ff000060" />
<circle cx="246.69473684210521" cy="25" r="2.5" fill="#ff000060" />
<circle cx="247.66315789473677" cy="25" r="2.5" fill="#ff000060" />
<circle cx="247.78947368421046" cy="25" r="2.5" fill="#ff000060" />
<circle cx="247.83157894736846" cy="25" r="2.5" fill="#ff000060" />
<circle cx="248.5052631578947" cy="25" r="2.5" fill="#ff000060" />
<circle cx="248.58947368421047" cy="25" r="2.5" fill="#ff000060" />
<circle cx="249.01052631578943" cy="25" r="2.5" fill="#ff000060" />
<circle cx="249.09473684210522" cy="25" r="2.5" fill="#ff000060" />
<circle cx="249.68421052631578" cy="25" r="2.5" fill="#ff000060" />
<circle cx="249.76842105263154" cy="25" r="2.5" fill="#ff000060" />
<circle cx="249.81052631578945" cy="25" r="2.5" fill="#ff000060" />
<circle cx="250.0631578947368" cy="25" r="2.5" fill="#ff000060" />
<circle cx="252.88421052631574" cy="25" r="2.5" fill="#ff000060" />
<circle cx="252.88421052631574" cy="25" r="2.5" fill="#ff000060" />
<circle cx="253.47368421052624" cy="25" r="2.5" fill="#ff000060" />
<circle cx="253.51578947368418" cy="25" r="2.5" fill="#ff000060" />
<circle cx="254.44210526315786" cy="25" r="2.5" fill="#ff000060" />
<circle cx="255.8736842105263" cy="25" r="2.5" fill="#ff000060" />
<circle cx="256.63157894736844" cy="25" r="2.5" fill="#ff000060" />
<circle cx="257.0526315789473" cy="25" r="2.5" fill="#ff000060" />
<circle cx="257.8105263157894" cy="25" r="2.5" fill="#ff000060" />
<circle cx="257.8526315789473" cy="25" r="2.5" fill="#ff000060" />
<circle cx="259.36842105263156" cy="25" r="2.5" fill="#ff000060" />
<circle cx="259.99999999999994" cy="25" r="2.5" fill="#ff000060" />
<circle cx="263.2" cy="25" r="2.5" fill="#ff000060" />
<circle cx="263.53684210526313" cy="25" r="2.5" fill="#ff000060" />
<circle cx="264.0842105263158" cy="25" r="2.5" fill="#ff000060" />
<circle cx="265.89473684210526" cy="25" r="2.5" fill="#ff000060" />
<circle cx="266.31578947368416" cy="25" r="2.5" fill="#ff000060" />
<circle cx="271.0736842105263" cy="25" r="2.5" fill="#ff000060" />
<circle cx="281.05263157894734" cy="25" r="2.5" fill="#ff000060" />
<circle cx="281.22105263157897" cy="25" r="2.5" fill="#ff000060" />
<circle cx="342.3578947368421" cy="25" r="2.5" fill="#ff000060" />
</g>
<text x="20" y="345" font-size="20" fill="white" dominant-baseline="middle" >cdt</text>
<line x1="10" y1="309.5" x2="930" y2="309.5" stroke="white" stroke-width="1" />
<g transform="translate(130, 320)">
<line x1="523" y1="10" x2="523" y2="40" stroke="white" stroke-width="2" />
<line x1="569" y1="10" x2="569" y2="40" stroke="white" stroke-width="2" />
<rect x="540" y="0" width="5" height="50" fill="#404040" stroke="white" stroke-width="2" />
<rect x="545" y="0" width="7" height="50" fill="#505050" stroke="white" stroke-width="2" />
<line x1="523" y1="25" x2="540" y2="25" stroke="white" stroke-width="2" />
<line x1="552" y1="25" x2="569" y2="25" stroke="white" stroke-width="2" />
<circle cx="516.8421052631578" cy="25" r="2.5" fill="#ff000060" />
<circle cx="517.8947368421053" cy="25" r="2.5" fill="#ff000060" />
<circle cx="518.2315789473683" cy="25" r="2.5" fill="#ff000060" />
<circle cx="518.9052631578948" cy="25" r="2.5" fill="#ff000060" />
<circle cx="519.0736842105263" cy="25" r="2.5" fill="#ff000060" />
<circle cx="519.3684210526316" cy="25" r="2.5" fill="#ff000060" />
<circle cx="519.4526315789474" cy="25" r="2.5" fill="#ff000060" />
<circle cx="519.578947368421" cy="25" r="2.5" fill="#ff000060" />
<circle cx="519.9157894736842" cy="25" r="2.5" fill="#ff000060" />
<circle cx="519.9999999999999" cy="25" r="2.5" fill="#ff000060" />
<circle cx="521.0526315789474" cy="25" r="2.5" fill="#ff000060" />
<circle cx="521.1368421052631" cy="25" r="2.5" fill="#ff000060" />
<circle cx="521.6" cy="25" r="2.5" fill="#ff000060" />
<circle cx="521.6842105263158" cy="25" r="2.5" fill="#ff000060" />
<circle cx="521.7263157894737" cy="25" r="2.5" fill="#ff000060" />
<circle cx="522.4842105263158" cy="25" r="2.5" fill="#ff000060" />
<circle cx="522.5684210526316" cy="25" r="2.5" fill="#ff000060" />
<circle cx="522.6526315789473" cy="25" r="2.5" fill="#ff000060" />
<circle cx="569.2210526315789" cy="25" r="2.5" fill="#ff000060" />
<circle cx="570.4842105263158" cy="25" r="2.5" fill="#ff000060" />
<circle cx="572.2947368421052" cy="25" r="2.5" fill="#ff000060" />
<circle cx="573.3473684210527" cy="25" r="2.5" fill="#ff000060" />
<circle cx="573.6421052631579" cy="25" r="2.5" fill="#ff000060" />
<circle cx="573.6421052631579" cy="25" r="2.5" fill="#ff000060" />
<circle cx="574.5263157894736" cy="25" r="2.5" fill="#ff000060" />
<circle cx="575.1578947368421" cy="25" r="2.5" fill="#ff000060" />
<circle cx="575.4526315789473" cy="25" r="2.5" fill="#ff000060" />
<circle cx="575.6631578947369" cy="25" r="2.5" fill="#ff000060" />
<circle cx="575.957894736842" cy="25" r="2.5" fill="#ff000060" />
<circle cx="578.2315789473685" cy="25" r="2.5" fill="#ff000060" />
<circle cx="579.3684210526316" cy="25" r="2.5" fill="#ff000060" />
<circle cx="579.5368421052631" cy="25" r="2.5" fill="#ff000060" />
<circle cx="579.7473684210527" cy="25" r="2.5" fill="#ff000060" />
<circle cx="581.7263157894737" cy="25" r="2.5" fill="#ff000060" />
<circle cx="583.9157894736841" cy="25" r="2.5" fill="#ff000060" />
<circle cx="584.0842105263158" cy="25" r="2.5" fill="#ff000060" />
<circle cx="593.2210526315789" cy="25" r="2.5" fill="#ff000060" />
<circle cx="596.7578947368421" cy="25" r="2.5" fill="#ff000060" />
<circle cx="607.6631578947369" cy="25" r="2.5" fill="#ff000060" />
<circle cx="628.5052631578947" cy="25" r="2.5" fill="#ff000060" />
<circle cx="781.6842105263158" cy="25" r="2.5" fill="#ff000060" />
</g>
<rect x="130" y="100" width="800" height="70" class="has-tooltip" opacity="0" />
<g transform="translate(150, 35)">
<rect x="0" y="0" width="360" height="160" fill="black" stroke="#a0a0a0" stroke-width="2" rx="5" />
<text x="10" y="25" fill="white" >Min:</text>
<text x="240" y="25" fill="white" >0.69ms</text>
<text x="10" y="50" fill="white" >Q1:</text>
<text x="240" y="50" fill="white" >0.71ms</text>
<text x="10" y="75" fill="white" >Median:</text>
<text x="240" y="75" fill="white" >0.72ms</text>
<text x="10" y="100" fill="white" >Q3:</text>
<text x="240" y="100" fill="white" >0.73ms</text>
<text x="10" y="125" fill="white" >Max:</text>
<text x="240" y="125" fill="white" >0.77ms</text>
<text x="10" y="150" fill="white" >Max (including outliers):</text>
<text x="240" y="150" fill="white" >0.93ms</text>
</g>
<rect x="130" y="170" width="800" height="70" class="has-tooltip" opacity="0" />
<g transform="translate(150, 105)">
<rect x="0" y="0" width="360" height="185" fill="black" stroke="#a0a0a0" stroke-width="2" rx="5" />
<text x="10" y="25" fill="white" >Min (including outliers):</text>
<text x="240" y="25" fill="white" >0.75ms</text>
<text x="10" y="50" fill="white" >Min:</text>
<text x="240" y="50" fill="white" >0.75ms</text>
<text x="10" y="75" fill="white" >Q1:</text>
<text x="240" y="75" fill="white" >0.79ms</text>
<text x="10" y="100" fill="white" >Median:</text>
<text x="240" y="100" fill="white" >0.80ms</text>
<text x="10" y="125" fill="white" >Q3:</text>
<text x="240" y="125" fill="white" >0.81ms</text>
<text x="10" y="150" fill="white" >Max:</text>
<text x="240" y="150" fill="white" >0.85ms</text>
<text x="10" y="175" fill="white" >Max (including outliers):</text>
<text x="240" y="175" fill="white" >1.03ms</text>
</g>
<rect x="130" y="240" width="800" height="70" class="has-tooltip" opacity="0" />
<g transform="translate(150, 175)">
<rect x="0" y="0" width="360" height="185" fill="black" stroke="#a0a0a0" stroke-width="2" rx="5" />
<text x="10" y="25" fill="white" >Min (including outliers):</text>
<text x="240" y="25" fill="white" >1.07ms</text>
<text x="10" y="50" fill="white" >Min:</text>
<text x="240" y="50" fill="white" >1.08ms</text>
<text x="10" y="75" fill="white" >Q1:</text>
<text x="240" y="75" fill="white" >1.11ms</text>
<text x="10" y="100" fill="white" >Median:</text>
<text x="240" y="100" fill="white" >1.12ms</text>
<text x="10" y="125" fill="white" >Q3:</text>
<text x="240" y="125" fill="white" >1.13ms</text>
<text x="10" y="150" fill="white" >Max:</text>
<text x="240" y="150" fill="white" >1.17ms</text>
<text x="10" y="175" fill="white" >Max (including outliers):</text>
<text x="240" y="175" fill="white" >1.41ms</text>
</g>
<rect x="130" y="310" width="800" height="70" class="has-tooltip" opacity="0" />
<g transform="translate(150, 245)">
<rect x="0" y="0" width="360" height="185" fill="black" stroke="#a0a0a0" stroke-width="2" rx="5" />
<text x="10" y="25" fill="white" >Min (including outliers):</text>
<text x="240" y="25" fill="white" >1.83ms</text>
<text x="10" y="50" fill="white" >Min:</text>
<text x="240" y="50" fill="white" >1.84ms</text>
<text x="10" y="75" fill="white" >Q1:</text>
<text x="240" y="75" fill="white" >1.88ms</text>
<text x="10" y="100" fill="white" >Median:</text>
<text x="240" y="100" fill="white" >1.90ms</text>
<text x="10" y="125" fill="white" >Q3:</text>
<text x="240" y="125" fill="white" >1.91ms</text>
<text x="10" y="150" fill="white" >Max:</text>
<text x="240" y="150" fill="white" >1.95ms</text>
<text x="10" y="175" fill="white" >Max (including outliers):</text>
<text x="240" y="175" fill="white" >2.46ms</text>
</g>
</svg>
